<svg width="25" height="25" viewBox="0 0 25 25" fill="none" xmlns="http://www.w3.org/2000/svg">
<path d="M23.9626 15.1042C22.3599 21.5328 15.8484 25.4448 9.41906 23.842C2.99273 22.2393 -0.919618 15.7278 0.683493 9.29959C2.28549 2.87026 8.79659 -1.04248 15.2241 0.560272C21.653 2.16299 25.565 8.67522 23.9623 15.1042H23.9626Z" fill="#F7931A"/>
<path d="M17.6127 10.4921C17.8512 8.89543 16.6354 8.03703 14.9731 7.46442L15.5123 5.30145L14.1953 4.9733L13.6703 7.07931C13.3246 6.99304 12.9691 6.91166 12.6158 6.83107L13.1446 4.71117L11.8287 4.38306L11.2891 6.54532C11.0026 6.48007 10.7213 6.41554 10.4483 6.34769L10.4498 6.34094L8.63411 5.88755L8.28386 7.29381C8.28386 7.29381 9.26072 7.51768 9.24009 7.53156C9.77333 7.66466 9.87009 8.01754 9.8536 8.2973L9.23748 10.7708L8.37609 14.2226C8.31084 14.3847 8.14548 14.6276 7.77272 14.5354C7.78585 14.5545 6.81574 14.2965 6.81574 14.2965L6.16211 15.804L7.87586 16.2311C8.1946 16.311 8.50697 16.3946 8.8141 16.4734L8.26923 18.6615L9.58434 18.9896L10.1244 16.8251C10.4832 16.9226 10.832 17.0126 11.1732 17.0974L10.6355 19.2517L11.9521 19.5799L12.497 17.3962C14.7421 17.8211 16.4307 17.6497 17.1406 15.6195C17.7132 13.9845 17.1124 13.0414 15.9312 12.426C16.7914 12.2269 17.4394 11.661 17.6123 10.4921H17.6127ZM14.6041 14.7105C14.1968 16.3455 11.4443 15.462 10.5514 15.24L11.2745 12.3416C12.1669 12.5644 15.0286 13.0054 14.6044 14.7105H14.6041ZM15.011 10.4685C14.6397 11.9558 12.3485 11.2002 11.6048 11.0149L12.2603 8.38617C13.004 8.57141 15.3979 8.91716 15.011 10.4685Z" fill="white"/>
</svg>
