<svg width="25" height="25" viewBox="0 0 25 25" fill="none" xmlns="http://www.w3.org/2000/svg">
<path d="M20.6279 20.6872C25.3141 16.0009 25.3141 8.40292 20.6279 3.71662C15.9416 -0.969668 8.34359 -0.969669 3.6573 3.71662C-1.029 8.40291 -1.02899 16.0009 3.6573 20.6872C8.34359 25.3735 15.9416 25.3735 20.6279 20.6872Z" fill="#C2A633"/>
<path d="M11.998 5.71215H8.26814V11.49H6.73633V12.9053H8.26827V18.6828H12.6142C12.6142 18.6828 18.7247 19.195 18.7247 12.3059C18.7247 5.5289 12.8803 5.71215 11.998 5.71215ZM12.5146 16.2852H10.716V12.9052H13.4135V11.4899H10.716V8.10961H12.4306C13.0719 8.10961 16.2982 8.36776 16.3033 12.3526C16.3085 16.3374 12.9767 16.2852 12.5146 16.2852Z" fill="white"/>
</svg>
