<svg width="20" height="20" viewBox="0 0 20 20" fill="none" xmlns="http://www.w3.org/2000/svg">
<path d="M11.666 17.4998H8.33266M14.9993 6.6665C14.9993 5.34042 14.4725 4.06865 13.5349 3.13097C12.5972 2.19329 11.3254 1.6665 9.99932 1.6665C8.67324 1.6665 7.40147 2.19329 6.46379 3.13097C5.52611 4.06865 4.99932 5.34042 4.99932 6.6665C4.99932 9.24166 4.34972 11.0048 3.62404 12.171C3.01193 13.1547 2.70587 13.6466 2.71709 13.7838C2.72952 13.9357 2.76171 13.9937 2.88414 14.0845C2.99471 14.1665 3.49315 14.1665 4.49004 14.1665H15.5086C16.5055 14.1665 17.0039 14.1665 17.1145 14.0845C17.2369 13.9937 17.2691 13.9357 17.2816 13.7838C17.2928 13.6466 16.9867 13.1547 16.3746 12.171C15.6489 11.0048 14.9993 9.24166 14.9993 6.6665Z" stroke="white" stroke-width="1.5" stroke-linecap="round" stroke-linejoin="round"/>
</svg>
