<svg width="25" height="25" viewBox="0 0 25 25" fill="none" xmlns="http://www.w3.org/2000/svg">
<path d="M12.0547 24.2012C18.6821 24.2012 24.0547 18.8286 24.0547 12.2012C24.0547 5.57375 18.6821 0.201172 12.0547 0.201172C5.42727 0.201172 0.0546875 5.57375 0.0546875 12.2012C0.0546875 18.8286 5.42727 24.2012 12.0547 24.2012Z" fill="#F30504"/>
<path d="M16.7556 13.1243C16.7471 13.1694 16.6147 13.3046 16.4823 13.4032C16.0935 13.6878 15.3976 13.9526 14.6904 14.0794C14.2875 14.1526 13.8846 14.1639 13.7635 14.1048C13.6846 14.0653 13.6733 14.0343 13.7015 13.9329C13.7607 13.7216 13.9522 13.4906 14.2509 13.2736C14.403 13.1637 15.0201 12.789 15.3074 12.6312C15.7808 12.372 16.1639 12.2171 16.4231 12.1804C16.5048 12.1692 16.6035 12.1664 16.6345 12.1804C16.6852 12.2002 16.7415 12.3495 16.7641 12.5298C16.7753 12.6256 16.7697 13.0482 16.7556 13.1243Z" fill="black"/>
<path d="M10.1169 14.0569C10.1 14.0907 10.0154 14.1273 9.91963 14.1414C9.82386 14.1555 9.53084 14.147 9.36463 14.1273C8.76732 14.0484 8.1334 13.8653 7.67134 13.6399C7.41215 13.5131 7.22619 13.3863 7.08814 13.2483L7.00924 13.1666L7.0008 13.0595C6.98672 12.8736 6.98952 12.5806 7.01207 12.4763C7.02615 12.389 7.05714 12.3045 7.09941 12.2284C7.11443 12.2096 7.15574 12.2002 7.22335 12.2002C7.34733 12.2002 7.45158 12.2199 7.62063 12.2735C7.96716 12.3805 8.48277 12.6397 9.11104 13.0173C9.62945 13.3272 9.82386 13.4793 9.97318 13.6878C10.0746 13.8174 10.1422 14.0005 10.1169 14.0569Z" fill="black"/>
<path d="M14.1056 17.9788C14.1056 17.9873 14.0718 18.1225 14.0296 18.2831C13.9873 18.4437 13.9535 18.5733 13.9535 18.5789C13.9225 18.5817 13.8943 18.5845 13.8633 18.5817H13.7732L13.6492 18.8748C13.5816 19.0353 13.5196 19.1847 13.5111 19.2072L13.4942 19.2466L13.4351 19.1509L13.3759 19.0551V18.2746L13.3534 18.2803C13.3055 18.2916 12.9646 18.3366 12.8152 18.3507C12.1982 18.4127 11.5784 18.3986 10.9642 18.3113C10.8656 18.2972 10.7811 18.2859 10.7783 18.2887C10.7754 18.2916 10.7783 18.4719 10.7839 18.6944L10.7923 19.0945L10.7444 19.1678C10.7191 19.2072 10.6937 19.241 10.6937 19.2438C10.6853 19.2523 10.6571 19.2072 10.5923 19.0776C10.5219 18.9424 10.4711 18.7987 10.4345 18.6494L10.4148 18.5677L10.3275 18.5733L10.2401 18.5817L10.2176 18.4775C10.2063 18.4211 10.1922 18.3338 10.1866 18.2859L10.1781 18.1957L10.1049 18.131C10.0626 18.0943 10.0204 18.0577 10.0119 18.0521C9.99783 18.0408 9.99219 18.0211 9.99219 18.0042V17.9704L10.3444 17.9732L10.6966 17.976L10.7078 18.0126L10.7191 18.0493L10.8402 18.0549C10.9078 18.0577 11.122 18.0633 11.3136 18.069L11.6658 18.0774L11.7559 17.9366L11.8489 17.7957H11.9672L11.9644 17.5026L11.9616 17.2097L11.8066 17.142C11.3079 16.9223 11.0149 16.6715 10.905 16.3672C10.8825 16.3053 10.8825 16.2827 10.8769 16.001C10.874 15.7221 10.874 15.6967 10.8938 15.6347C10.9332 15.4938 11.0431 15.384 11.184 15.3473C11.2318 15.3333 11.3586 15.3333 12.0236 15.3333L12.8068 15.3361L12.8941 15.3783C12.9984 15.429 13.0463 15.4657 13.1055 15.5445C13.1731 15.6347 13.1928 15.7051 13.1928 15.877C13.1928 16.1221 13.1759 16.3334 13.1505 16.418C13.1139 16.5335 13.0576 16.6433 12.9871 16.742C12.8462 16.9223 12.5899 17.1026 12.356 17.1843L12.2884 17.2097L12.2912 17.5055L12.294 17.8013L12.356 17.8069L12.418 17.8126L12.5025 17.9394L12.5842 18.0661H12.9618C13.1703 18.0661 13.3534 18.069 13.3703 18.0718C13.3984 18.0774 13.4041 18.0746 13.4323 18.0267L13.4661 17.976H13.7901C14.0324 17.9647 14.1056 17.9704 14.1056 17.9788Z" fill="black"/>
<path d="M12.6197 18.7885C12.5662 18.8195 12.5295 18.8336 12.5211 18.828C12.5126 18.8252 12.4732 18.7913 12.4309 18.7604L12.3549 18.6984L12.276 18.7829C12.1041 18.9689 12.0985 18.9773 12.0478 18.9801C11.9688 18.9886 11.952 18.9745 11.8562 18.8308C11.8054 18.7576 11.766 18.6956 11.766 18.6956C11.766 18.6956 11.7294 18.6899 11.6871 18.6871L11.6082 18.6787L11.5716 18.7547L11.535 18.8308L11.4702 18.8111C11.4195 18.7942 11.3687 18.7745 11.3209 18.7519L11.2363 18.7096V18.5491L11.9858 18.5519L12.7352 18.5547L12.738 18.6308C12.7408 18.7209 12.7437 18.7181 12.6197 18.7885Z" fill="black"/>
<path d="M19.6624 15.3513C19.6596 15.34 19.6596 15.3203 19.6568 15.2893C18.9806 15.216 17.0507 15.1709 15.2587 16.6501C15.2587 16.6501 14.6812 14.0017 11.9765 14.0017C9.27174 14.0017 8.26871 16.6501 8.26871 16.6501C6.75294 15.0188 4.7244 15.1371 3.99188 15.2442C3.99188 15.2611 3.98907 15.2808 3.98907 15.2977C3.96652 15.7062 3.97779 15.9006 4.04542 16.157C4.2567 16.96 4.90752 17.8447 5.92743 18.7125C7.59817 20.1324 9.86339 21.158 11.5792 21.2763C13.3683 21.3975 16.0082 20.3522 17.7663 18.8251C18.0424 18.58 18.3016 18.3208 18.5439 18.0447C18.7186 17.8419 18.9778 17.4925 18.958 17.4925C18.9524 17.4925 18.958 17.4869 18.9693 17.4812C18.9778 17.4756 18.9862 17.4672 18.9806 17.4615C18.9778 17.4587 18.9834 17.4502 18.9919 17.4474C19.0003 17.4446 19.0059 17.439 19.0031 17.4333C19.0003 17.4277 19.0031 17.422 19.0144 17.4192C19.0229 17.4164 19.0257 17.408 19.0229 17.4023C19.02 17.3967 19.0229 17.3911 19.0285 17.3911C19.0341 17.3911 19.0398 17.3826 19.0398 17.377C19.0398 17.3713 19.0454 17.3629 19.051 17.3629C19.0566 17.3629 19.0623 17.3573 19.0623 17.3516C19.0708 17.3291 19.0848 17.3065 19.0989 17.2868C19.1412 17.222 19.3102 16.9205 19.3328 16.8698C19.4934 16.5064 19.5948 16.1824 19.6427 15.8584C19.6596 15.7034 19.6737 15.4189 19.6624 15.3513ZM12.6188 18.7885C12.5653 18.8195 12.5287 18.8336 12.5202 18.828C12.5118 18.8252 12.4723 18.7913 12.4301 18.7603L12.354 18.6983L12.2751 18.7829C12.1032 18.9688 12.0976 18.9773 12.0469 18.9801C11.968 18.9886 11.9511 18.9745 11.8553 18.8308C11.8046 18.7575 11.7652 18.6955 11.7652 18.6955C11.7652 18.6955 11.7285 18.6899 11.6862 18.6871L11.6074 18.6786L11.5707 18.7547L11.5341 18.8308L11.4693 18.8111C11.4186 18.7942 11.3679 18.7744 11.32 18.7519L11.2355 18.7096V18.549L11.9849 18.5519L12.7343 18.5547L12.7372 18.6307C12.74 18.7209 12.7428 18.7181 12.6188 18.7885ZM14.0276 18.2814C13.9853 18.442 13.9515 18.5716 13.9515 18.5772C13.9205 18.58 13.8923 18.5828 13.8613 18.58H13.7712L13.65 18.8759C13.5824 19.0364 13.5204 19.1858 13.512 19.2083L13.495 19.2477L13.4359 19.152L13.3767 19.0562V18.2757L13.3542 18.2814C13.3063 18.2927 12.9654 18.3377 12.8161 18.3518C12.199 18.4138 11.5792 18.3997 10.965 18.3124C10.8664 18.2983 10.7819 18.287 10.7791 18.2898C10.7762 18.2927 10.7791 18.473 10.7847 18.6955L10.7931 19.0956L10.7452 19.1689C10.7199 19.2083 10.6945 19.2421 10.6945 19.2449C10.6861 19.2534 10.6579 19.2083 10.5931 19.0787C10.5227 18.9435 10.4719 18.7998 10.4353 18.6505L10.4156 18.5688L10.3283 18.5744L10.2409 18.5828L10.2184 18.4786C10.2071 18.4222 10.193 18.3349 10.1874 18.287L10.179 18.1968L10.1057 18.1321C10.0634 18.0954 10.0212 18.0588 10.0127 18.0532C9.99864 18.0419 9.99299 18.0222 9.99299 18.0053V17.9715L10.3452 17.9743L10.6974 17.9771L10.7086 18.0137L10.7199 18.0504L10.8411 18.056C10.9086 18.0588 11.1228 18.0644 11.3144 18.0701L11.6666 18.0785L11.7567 17.9377L11.8497 17.7968H11.968L11.9652 17.5037L11.9624 17.2108L11.8074 17.1431C11.3087 16.9234 11.0157 16.6726 10.9058 16.3683C10.8833 16.3064 10.8833 16.2838 10.8777 16.0021C10.8749 15.7232 10.8748 15.6978 10.8946 15.6358C10.934 15.4949 11.0439 15.3851 11.1848 15.3484C11.2327 15.3344 11.3594 15.3344 12.0244 15.3344L12.8076 15.3372L12.8949 15.3794C12.9992 15.4301 13.0471 15.4668 13.1063 15.5456C13.1739 15.6358 13.1936 15.7062 13.1936 15.8781C13.1936 16.1232 13.1767 16.3345 13.1513 16.4191C13.1147 16.5346 13.0584 16.6444 12.9879 16.7431C12.847 16.9234 12.5907 17.1037 12.3568 17.1854L12.2892 17.2108L12.292 17.5066L12.2948 17.8024L12.3568 17.808L12.4188 17.8137L12.5033 17.9405L12.585 18.0672H12.9626C13.1711 18.0672 13.3542 18.0701 13.3711 18.0729C13.3992 18.0785 13.4049 18.0757 13.4331 18.0278L13.4669 17.9771H13.7909C14.0416 17.9771 14.1149 17.9799 14.1149 17.9884C14.1064 17.9856 14.0698 18.1236 14.0276 18.2814Z" fill="white"/>
<path d="M19.6399 15.0632C19.6343 14.9364 19.6231 14.7589 19.6146 14.6716C19.4934 13.3925 19.1666 12.3472 18.5468 11.2399C18.5214 11.1977 18.4989 11.1554 18.4848 11.1216C18.4792 11.1132 18.4763 11.1047 18.4735 11.0991C18.5609 10.837 18.9187 9.74106 19.2032 8.48732C19.5892 6.78559 19.8343 4.79648 19.0849 4.1992C19.0849 4.1992 17.7889 4.10342 16.0534 5.80511C15.5829 6.27565 15.1518 6.78559 14.7686 7.32936L14.6475 7.28992C13.9487 7.06169 13.2247 6.92084 12.495 6.87293C12.2752 6.85602 11.4553 6.85602 11.1877 6.87293C10.3791 6.92648 9.75925 7.04761 9.05488 7.29273C9.02669 7.304 9.00134 7.31244 8.97598 7.32092C8.57874 6.77995 8.13639 6.27282 7.64898 5.80795C5.84302 4.09778 4.4991 4.19637 4.4991 4.19637C3.70459 4.8134 3.97505 6.89265 4.38641 8.65072C4.65687 9.81432 4.98932 10.837 5.11329 11.2061C5.10485 11.2259 5.09358 11.2484 5.0823 11.2681C4.42584 12.5979 4.07087 13.8799 3.98633 15.2435C4.72169 15.1364 6.7474 15.0153 8.266 16.6494C8.266 16.6494 9.269 14.001 11.9737 14.001C14.6785 14.001 15.256 16.6494 15.256 16.6494C17.0479 15.1703 18.9778 15.2181 19.654 15.2886C19.6512 15.2322 19.6456 15.1477 19.6399 15.0632ZM5.64579 10.144C5.64579 10.144 4.59208 7.50968 4.86255 6.00515C4.90762 5.7516 4.99216 5.52901 5.12457 5.35997C5.12457 5.35997 6.31917 5.4783 8.24629 7.61954C8.24629 7.61954 7.88 7.79706 7.38978 8.17458C7.38978 8.17458 7.38698 8.17739 7.38415 8.17739C6.85166 8.58594 6.16984 9.23392 5.64579 10.144ZM10.1171 14.0574C10.1001 14.0912 10.0156 14.1278 9.91982 14.1419C9.82404 14.156 9.53102 14.1475 9.36481 14.1278C8.7675 14.0489 8.13359 13.8658 7.67152 13.6404C7.41233 13.5136 7.22638 13.3868 7.08833 13.2488L7.00942 13.1671L7.00098 13.06C6.9869 12.8741 6.9897 12.581 7.01226 12.4768C7.02634 12.3894 7.05733 12.3049 7.0996 12.2289C7.11461 12.2101 7.15593 12.2007 7.22354 12.2007C7.34751 12.2007 7.45177 12.2204 7.62082 12.2739C7.96735 12.381 8.48296 12.6402 9.11123 13.0177C9.62964 13.3276 9.82404 13.4798 9.97337 13.6883C10.0748 13.8179 10.1424 14.001 10.1171 14.0574ZM16.7549 13.1248C16.7464 13.1699 16.614 13.3051 16.4816 13.4037C16.0928 13.6883 15.3969 13.9531 14.6897 14.0799C14.2868 14.1531 13.884 14.1644 13.7628 14.1053C13.6839 14.0658 13.6726 14.0348 13.7008 13.9334C13.76 13.7221 13.9516 13.4911 14.2502 13.2741C14.4023 13.1642 15.0194 12.7895 15.3068 12.6317C15.7801 12.3726 16.1633 12.2176 16.4224 12.181C16.5041 12.1697 16.6028 12.1669 16.6338 12.181C16.6845 12.2007 16.7408 12.35 16.7634 12.5303C16.7746 12.6261 16.769 13.0487 16.7549 13.1248ZM16.2872 8.17458L16.2816 8.17178C15.8082 7.79422 15.4532 7.61674 15.4532 7.61674C17.3156 5.4755 18.4679 5.35716 18.4679 5.35716C18.5947 5.52901 18.6764 5.74877 18.7215 6.00235C18.9835 7.50684 17.9664 10.144 17.9664 10.144C17.541 9.38609 16.969 8.71551 16.2872 8.17458Z" fill="#FFA409"/>
<path d="M18.7222 6.00725C18.5025 5.97906 17.4628 5.97345 16.2852 8.17948L16.2795 8.17668C15.8062 7.79912 15.4512 7.62164 15.4512 7.62164C17.3135 5.4804 18.4658 5.36206 18.4658 5.36206C18.5954 5.53391 18.6771 5.75367 18.7222 6.00725Z" fill="#FF9300"/>
<path d="M17.9671 10.1467C17.5389 9.38601 16.9698 8.71828 16.2852 8.17734C17.4628 5.97132 18.4996 5.97692 18.7222 6.00511C18.9842 7.51244 17.9671 10.1467 17.9671 10.1467Z" fill="#FF8300"/>
<path d="M18.7649 6.01454C18.7508 6.01174 18.7367 6.00891 18.7227 6.0061L18.7649 6.01454Z" fill="#FF8300"/>
<path d="M8.24592 7.62164C8.24592 7.62164 7.87964 7.79912 7.38941 8.17668C7.38941 8.17668 7.38659 8.17948 7.38378 8.17948C6.16383 5.97062 5.09041 5.97906 4.85938 6.00725C4.90445 5.75367 4.98895 5.53111 5.1214 5.36206C5.1242 5.36206 6.3188 5.4804 8.24592 7.62164Z" fill="#FF9300"/>
<path d="M7.38716 8.17734C6.85186 8.5887 6.17005 9.23388 5.646 10.1467C5.646 10.1467 4.59229 7.51244 4.86275 6.00511C5.09098 5.97692 6.16724 5.97132 7.38716 8.17734Z" fill="#FF8300"/>
<path d="M4.86343 6.0061C4.84935 6.00891 4.83244 6.01174 4.81836 6.01454L4.86343 6.0061Z" fill="#FF8300"/>
<path d="M15.1189 11.6059C15.1189 11.6059 14.2174 11.6623 14.3301 10.9579C14.4428 10.2535 15.1471 10.169 15.3443 10.1972C15.5415 10.2254 16.3304 10.5071 16.1896 11.0988C16.0487 11.6904 15.8515 11.5777 15.7388 11.6059C15.6261 11.6341 15.1189 11.6059 15.1189 11.6059Z" fill="white"/>
<path d="M8.46855 11.6059C8.46855 11.6059 7.56697 11.6623 7.67967 10.9579C7.79237 10.2535 8.49674 10.169 8.69394 10.1972C8.89118 10.2254 9.68005 10.5071 9.53916 11.0988C9.39831 11.6904 9.20108 11.5777 9.08838 11.6059C8.97568 11.6341 8.46855 11.6059 8.46855 11.6059Z" fill="white"/>
</svg>
