<svg width="25" height="25" viewBox="0 0 25 25" fill="none" xmlns="http://www.w3.org/2000/svg">
<rect x="0.232422" y="0.201172" width="24" height="24" rx="12" fill="#50AF95"/>
<path fill-rule="evenodd" clip-rule="evenodd" d="M13.5424 12.706C13.4701 12.7115 13.0968 12.7337 12.2641 12.7337C11.6017 12.7337 11.1315 12.7139 10.9665 12.706C8.40689 12.5934 6.49636 12.1479 6.49636 11.6144C6.49636 11.0809 8.40689 10.636 10.9665 10.5215V12.2623C11.1339 12.2743 11.6132 12.3026 12.2755 12.3026C13.0703 12.3026 13.4683 12.2695 13.54 12.2629V10.5228C16.0942 10.6366 18.0005 11.0821 18.0005 11.6144C18.0005 12.1467 16.0948 12.5922 13.54 12.7054L13.5424 12.706ZM13.5424 10.3427V8.78503H17.1069V6.40967H7.40195V8.78503H10.9659V10.3421C8.0691 10.4752 5.89062 11.049 5.89062 11.7366C5.89062 12.4242 8.0691 12.9975 10.9659 13.1311V18.1227H13.5418V13.1293C16.4319 12.9963 18.6068 12.423 18.6068 11.736C18.6068 11.049 16.4338 10.4758 13.5418 10.3421L13.5424 10.3427Z" fill="white"/>
<rect x="14.1074" y="14.0762" width="10.125" height="10.125" rx="5.0625" fill="#FF060A"/>
<path d="M21.8282 17.9313C21.5434 17.6683 21.1495 17.2668 20.8286 16.982L20.8096 16.9687C20.7781 16.9434 20.7424 16.9235 20.7043 16.9099C19.9307 16.7656 16.3303 16.0926 16.26 16.1012C16.2403 16.1039 16.2215 16.111 16.205 16.122L16.1869 16.1363C16.1647 16.1588 16.1478 16.1861 16.1376 16.216L16.1328 16.2284V16.2957V16.3062C16.5381 17.4348 18.1385 21.1321 18.4537 21.9996C18.4727 22.0585 18.5087 22.1705 18.5761 22.1762H18.5913C18.6274 22.1762 18.7812 21.9731 18.7812 21.9731C18.7812 21.9731 21.5301 18.6394 21.8082 18.2844C21.8442 18.2406 21.876 18.1936 21.9032 18.1439C21.9101 18.105 21.9068 18.065 21.8937 18.0277C21.8805 17.9904 21.858 17.9572 21.8282 17.9313ZM19.4864 18.3195L20.6597 17.3465L21.3479 17.9806L19.4864 18.3195ZM19.0308 18.2559L17.0108 16.6004L20.279 17.2032L19.0308 18.2559ZM19.2131 18.6897L21.2805 18.3565L18.9169 21.2042L19.2131 18.6897ZM16.7365 16.7656L18.8618 18.5691L18.5543 21.2061L16.7365 16.7656Z" fill="white"/>
</svg>
