<svg width="58" height="50" viewBox="0 0 58 50" fill="none" xmlns="http://www.w3.org/2000/svg">
<path d="M46.8129 0H10.6815L0.175781 22.4566L28.7472 50L57.3186 22.4566L46.8129 0Z" fill="#53AE94"/>
<path d="M32.7149 17.8892V13.5309H42.6812V6.89062H15.5432V13.5309H25.5104V17.8858C17.4098 18.2572 11.3184 19.8621 11.3184 21.7838C11.3184 23.7055 17.4126 25.3101 25.5104 25.6858V39.6455H32.7184V25.6832C40.8041 25.3101 46.8826 23.7069 46.8826 21.7866C46.8826 19.8663 40.8041 18.2635 32.7184 17.8903M32.7184 24.5009V24.4972C32.5152 24.5101 31.4704 24.5729 29.1444 24.5729C27.2846 24.5729 25.9761 24.5201 25.5158 24.4961V24.5021C18.3572 24.1849 13.0155 22.9386 13.0155 21.4475C13.0155 19.9563 18.3584 18.7118 25.5138 18.3943V23.2603C25.9826 23.2926 27.3232 23.3718 29.1735 23.3718C31.3961 23.3718 32.5135 23.2792 32.7184 23.2603V18.3943C39.8612 18.7123 45.1906 19.9598 45.1906 21.4458C45.1906 22.9318 39.8586 24.1798 32.7184 24.4978" fill="white"/>
<path d="M44.3203 46.8182C49.7427 46.8182 54.1385 42.4224 54.1385 37C54.1385 31.5776 49.7427 27.1818 44.3203 27.1818C38.8979 27.1818 34.5021 31.5776 34.5021 37C34.5021 42.4224 38.8979 46.8182 44.3203 46.8182Z" fill="#131415" stroke="#53AE94" stroke-width="1.63636"/>
<path fill-rule="evenodd" clip-rule="evenodd" d="M46.6552 37.9558L48.0128 39.3095L44.3223 42.9961L40.6357 39.3095L41.9933 37.9558L44.3223 40.2848L46.6552 37.9558ZM44.3223 35.6229L45.6994 37L44.3223 38.3771L42.9491 37.0039V37L43.1909 36.7581L43.308 36.6411L44.3223 35.6229ZM39.6799 35.6424L41.0375 37L39.6799 38.3537L38.3223 36.9961L39.6799 35.6424ZM48.9647 35.6424L50.3223 37L48.9647 38.3537L47.6071 36.9961L48.9647 35.6424ZM44.3223 31L48.0089 34.6866L46.6513 36.0442L44.3223 33.7113L41.9933 36.0403L40.6357 34.6866L44.3223 31Z" fill="#F3BA2F"/>
</svg>
