<svg width="25" height="24" viewBox="0 0 25 24" fill="none" xmlns="http://www.w3.org/2000/svg">
<path d="M20.666 9.5V7.2C20.666 6.0799 20.666 5.51984 20.448 5.09202C20.2563 4.7157 19.9503 4.40974 19.574 4.21799C19.1462 4 18.5861 4 17.466 4L5.86602 4C4.74591 4 4.18586 4 3.75803 4.21799C3.38171 4.40973 3.07575 4.71569 2.884 5.09202C2.66602 5.51984 2.66602 6.0799 2.66602 7.2L2.66602 16.8C2.66602 17.9201 2.66602 18.4802 2.884 18.908C3.07575 19.2843 3.38171 19.5903 3.75803 19.782C4.18586 20 4.74591 20 5.86602 20L17.466 20C18.5861 20 19.1462 20 19.574 19.782C19.9503 19.5903 20.2563 19.2843 20.448 18.908C20.666 18.4802 20.666 17.9201 20.666 16.8L20.666 14.5M15.666 12C15.666 11.5353 15.666 11.303 15.7044 11.1098C15.8623 10.3164 16.4825 9.69624 17.2758 9.53843C17.469 9.5 17.7014 9.5 18.166 9.5H20.166C20.6307 9.5 20.863 9.5 21.0562 9.53843C21.8496 9.69624 22.4698 10.3164 22.6276 11.1098C22.666 11.303 22.666 11.5353 22.666 12C22.666 12.4647 22.666 12.697 22.6276 12.8902C22.4698 13.6836 21.8496 14.3038 21.0562 14.4616C20.863 14.5 20.6307 14.5 20.166 14.5L18.166 14.5C17.7014 14.5 17.469 14.5 17.2758 14.4616C16.4825 14.3038 15.8623 13.6836 15.7044 12.8902C15.666 12.697 15.666 12.4647 15.666 12Z" stroke="white" stroke-width="2" stroke-linecap="round" stroke-linejoin="round"/>
</svg>
