<svg width="53" height="52" viewBox="0 0 53 52" fill="none" xmlns="http://www.w3.org/2000/svg">
<path d="M11.9034 34.6941C10.4513 34.4867 9.04045 34.3311 7.64916 34.0709C6.6422 33.8825 5.71385 33.4437 4.89066 32.8103C4.15252 32.2423 3.99979 31.3324 4.53686 30.6537C5.07752 29.9705 5.96596 29.9174 6.72011 30.4803C7.01177 30.698 7.35494 30.8655 7.69817 30.992C8.96142 31.4575 10.2803 31.5747 11.5714 31.5798C11.8844 30.3305 12.1895 29.1128 12.4945 27.8953C11.7529 27.686 10.9251 27.4955 10.1272 27.219C7.87273 26.4377 6.00595 25.1654 4.99726 22.9046C4.19036 21.096 4.13861 19.2025 4.60773 17.317C5.87556 12.2212 8.64961 8.25356 13.4084 5.81613C14.0351 5.49513 14.6538 5.43068 15.2314 5.89729C15.7955 6.35293 15.8447 6.95823 15.6892 7.62418C15.3314 9.15661 14.9907 10.693 14.6308 12.2817C15.7909 12.2817 16.9149 12.2711 18.0386 12.285C18.9825 12.2966 19.676 13.0591 19.5222 13.9563C19.468 14.2725 19.2859 14.5945 19.0845 14.8535C17.5394 16.8405 15.6647 18.4481 13.5078 19.7515C12.4801 20.3725 11.4712 21.0549 10.5645 21.8378C9.49351 22.7626 9.65587 22.8601 10.8029 23.2805C11.868 23.6709 13.027 23.8013 14.1018 24.1706C14.8211 24.4177 15.2066 24.1533 15.7012 23.7009C18.2036 21.4118 21.2078 20.1942 24.5467 19.8223C28.4691 19.3853 32.1502 20.1564 35.4844 22.3127C36.4001 22.9049 37.2184 23.6473 38.1222 24.3526C39.1511 24.112 40.2826 23.8862 41.3895 23.5735C42.0137 23.3971 42.5975 23.0777 43.3376 22.7642C42.9361 22.3379 42.6941 21.9891 42.3699 21.7535C41.3339 21.0007 40.2955 20.2441 39.2065 19.5727C37.1685 18.3161 35.4233 16.7487 33.9266 14.888C33.494 14.3501 33.288 13.7852 33.5991 13.1345C33.9081 12.488 34.4648 12.2643 35.1617 12.2762C36.2116 12.2941 37.2621 12.2809 38.369 12.2809C38.1031 11.1049 37.8462 9.96765 37.5888 8.83052C37.4831 8.3637 37.3681 7.89882 37.2722 7.43001C37.1482 6.82358 37.2792 6.28558 37.7798 5.88945C38.2929 5.48355 38.8559 5.47048 39.4354 5.7448C42.3323 7.11606 44.5384 9.23778 46.1998 11.9566C47.3218 13.7929 48.1586 15.7393 48.5049 17.8745C49.2377 22.3922 47.2548 25.7101 42.9088 27.213C42.0974 27.4936 41.2564 27.6887 40.502 27.9026C40.8044 29.1132 41.1059 30.3199 41.4203 31.578C42.9538 31.5652 44.5254 31.4242 45.988 30.6936C46.1103 30.6325 46.2168 30.5377 46.3258 30.4523C47.0305 29.8997 47.9414 29.9865 48.4693 30.6581C48.9921 31.3232 48.8563 32.2328 48.1446 32.7877C47.0807 33.617 45.8436 34.053 44.5358 34.2604C43.4113 34.4386 42.2706 34.5147 41.1339 34.6363C40.8934 35.3609 40.6417 36.1192 40.3534 36.9879C41.0784 37.1331 41.8032 37.3109 42.5383 37.4151C43.1175 37.4972 43.7092 37.4964 44.2959 37.5187C45.1939 37.5529 45.8327 38.1898 45.8143 39.047C45.7965 39.8727 45.1396 40.4931 44.26 40.4891C42.362 40.4805 40.5037 40.242 38.8466 39.5085C38.1453 40.2258 37.4881 40.898 36.8031 41.5986C37.3412 42.2262 38.1564 42.6873 39.0181 43.0732C39.3828 43.2365 39.7675 43.3598 40.1504 43.4771C41.0727 43.7596 41.5444 44.4866 41.3356 45.3292C41.1315 46.1524 40.3247 46.5902 39.3988 46.3551C37.4007 45.8477 35.6755 44.879 34.3195 43.3008C34.2792 43.254 34.2528 43.1952 34.2102 43.1261C34.0296 43.2028 33.891 43.2585 33.7549 43.3198C28.9113 45.5035 24.0659 45.5072 19.228 43.3117C18.9164 43.1703 18.7644 43.2009 18.5371 43.456C17.166 44.9945 15.4303 45.9255 13.4419 46.396C12.6466 46.5843 11.8704 46.1012 11.6701 45.3481C11.459 44.5546 11.8862 43.7797 12.7024 43.5337C13.8678 43.1825 14.9627 42.7038 15.8939 41.8991C16.0326 41.7793 16.1819 41.6718 16.2347 41.6304C15.5152 40.9078 14.8531 40.2428 14.1357 39.5222C12.5048 40.2379 10.647 40.4797 8.74932 40.4893C7.8456 40.4938 7.18894 39.8616 7.18698 39.0089C7.18505 38.1737 7.81947 37.5529 8.69684 37.5188C9.26808 37.4966 9.84415 37.4979 10.4083 37.4188C11.164 37.3129 11.9103 37.1395 12.6673 36.9938C12.3818 36.1344 12.1297 35.3755 11.9034 34.6941Z" fill="url(#paint0_linear_4790_191274)"/>
<defs>
<linearGradient id="paint0_linear_4790_191274" x1="26.5014" y1="5.55859" x2="26.5014" y2="46.4368" gradientUnits="userSpaceOnUse">
<stop stop-color="#FF6666"/>
<stop offset="1" stop-color="white"/>
</linearGradient>
</defs>
</svg>
