<svg width="25" height="24" viewBox="0 0 25 24" fill="none" xmlns="http://www.w3.org/2000/svg">
<g clip-path="url(#clip0_0_619)">
<path d="M7.75 16.0087V18.8087C7.75 19.9288 7.75 20.4888 7.96799 20.9166C8.15973 21.293 8.46569 21.5989 8.84202 21.7907C9.26984 22.0087 9.82989 22.0087 10.95 22.0087H18.55C19.6701 22.0087 20.2302 22.0087 20.658 21.7907C21.0343 21.5989 21.3403 21.293 21.532 20.9166C21.75 20.4888 21.75 19.9288 21.75 18.8087V11.2087C21.75 10.0886 21.75 9.52851 21.532 9.10069C21.3403 8.72436 21.0343 8.4184 20.658 8.22665C20.2302 8.00867 19.6701 8.00867 18.55 8.00867H15.75M4.95 16.0087H12.55C13.6701 16.0087 14.2302 16.0087 14.658 15.7907C15.0343 15.5989 15.3403 15.293 15.532 14.9166C15.75 14.4888 15.75 13.9288 15.75 12.8087V5.20867C15.75 4.08856 15.75 3.52851 15.532 3.10069C15.3403 2.72436 15.0343 2.4184 14.658 2.22665C14.2302 2.00867 13.6701 2.00867 12.55 2.00867H4.95C3.8299 2.00867 3.26984 2.00867 2.84202 2.22665C2.46569 2.4184 2.15973 2.72436 1.96799 3.10069C1.75 3.52851 1.75 4.08856 1.75 5.20867V12.8087C1.75 13.9288 1.75 14.4888 1.96799 14.9166C2.15973 15.293 2.46569 15.5989 2.84202 15.7907C3.26984 16.0087 3.82989 16.0087 4.95 16.0087Z" stroke="#0094FF" stroke-width="2" stroke-linecap="round" stroke-linejoin="round"/>
</g>
<defs>
<clipPath id="clip0_0_619">
<rect width="24" height="24" fill="white" transform="translate(0.25 0.00866699)"/>
</clipPath>
</defs>
</svg>
