<svg width="120" height="120" viewBox="0 0 120 120" fill="none" xmlns="http://www.w3.org/2000/svg">
<path d="M110 40.8119L110 41.1746C109.999 45.4783 109.999 47.6301 108.963 49.3907C107.928 51.1513 106.046 52.1963 102.284 54.2864L98.3177 56.4902C101.051 47.2494 101.963 37.321 102.3 28.8301C102.315 28.4661 102.331 28.0975 102.347 27.7251L102.359 27.4642C105.615 28.595 107.444 29.4381 108.584 31.0206C110 32.9849 110 35.5939 110 40.8119Z" fill="url(#paint0_linear_113_656)"/>
<path d="M9.99988 40.8119L9.99989 41.1746C10 45.4783 10.0001 47.6301 11.036 49.3907C12.072 51.1513 13.953 52.1963 17.7151 54.2864L21.6839 56.4914C18.9502 47.2503 18.0382 37.3213 17.7011 28.8301C17.6867 28.4661 17.6704 28.0975 17.6539 27.7251L17.6424 27.4636C14.3849 28.5947 12.5562 29.4378 11.4154 31.0206C9.99967 32.9849 9.99974 35.5939 9.99988 40.8119Z" fill="url(#paint1_linear_113_656)"/>
<path fill-rule="evenodd" clip-rule="evenodd" d="M81.8855 11.734C76.2652 10.7857 68.9184 10.0002 60.0006 10.0002C51.0829 10.0002 43.7361 10.7857 38.1158 11.734C32.4221 12.6946 29.5753 13.1749 27.1967 16.1044C24.8181 19.0339 24.9438 22.2001 25.1952 28.5326C26.0583 50.2721 30.7497 77.4255 56.2499 79.8286V97.5002H49.0989C46.7155 97.5002 44.6634 99.1825 44.196 101.52L43.2499 106.25H29.9999C27.9288 106.25 26.2499 107.929 26.2499 110C26.2499 112.071 27.9288 113.75 29.9999 113.75H89.9999C92.0709 113.75 93.7499 112.071 93.7499 110C93.7499 107.929 92.0709 106.25 89.9999 106.25H76.7499L75.8038 101.52C75.3363 99.1825 73.2843 97.5002 70.9009 97.5002H63.7499V79.8287C89.2514 77.4266 93.943 50.2725 94.8061 28.5326C95.0575 22.2001 95.1832 19.0339 92.8046 16.1044C90.426 13.1749 87.5792 12.6946 81.8855 11.734ZM63.9349 29.0358C65.3362 29.6162 66.2499 30.9836 66.2499 32.5004V52.5004C66.2499 54.5714 64.5709 56.2504 62.4999 56.2504C60.4288 56.2504 58.7499 54.5714 58.7499 52.5004V41.5537L57.6515 42.652C56.1871 44.1165 53.8127 44.1165 52.3482 42.652C50.8838 41.1875 50.8838 38.8132 52.3482 37.3487L59.8482 29.8487C60.9207 28.7762 62.5337 28.4554 63.9349 29.0358Z" fill="url(#paint2_linear_113_656)"/>
<defs>
<linearGradient id="paint0_linear_113_656" x1="-11.4923" y1="46.9993" x2="133.008" y2="46.9993" gradientUnits="userSpaceOnUse">
<stop stop-color="#2A66FF" stop-opacity="0"/>
<stop offset="0.5" stop-color="#2AB4FF"/>
<stop offset="1" stop-color="#2A66FF" stop-opacity="0"/>
</linearGradient>
<linearGradient id="paint1_linear_113_656" x1="-11.4923" y1="46.9993" x2="133.008" y2="46.9993" gradientUnits="userSpaceOnUse">
<stop stop-color="#2A66FF" stop-opacity="0"/>
<stop offset="0.5" stop-color="#2AB4FF"/>
<stop offset="1" stop-color="#2A66FF" stop-opacity="0"/>
</linearGradient>
<linearGradient id="paint2_linear_113_656" x1="-11.4923" y1="46.9993" x2="133.008" y2="46.9993" gradientUnits="userSpaceOnUse">
<stop stop-color="#2A66FF" stop-opacity="0"/>
<stop offset="0.5" stop-color="#2AB4FF"/>
<stop offset="1" stop-color="#2A66FF" stop-opacity="0"/>
</linearGradient>
</defs>
</svg>
