<svg width="33" height="32" viewBox="0 0 33 32" fill="none" xmlns="http://www.w3.org/2000/svg">
<path d="M18.4873 18.7245C19.2114 17.9276 20.0089 17.2794 20.9516 16.8329C23.4794 15.6358 25.9953 15.6801 28.4363 17.043C30.455 18.1702 31.7643 19.8991 32.2699 22.1584C32.9226 25.0746 32.1893 27.6544 30.0373 29.7286C27.837 31.8494 25.1679 32.4977 22.2429 31.6442C19.4556 30.8309 17.6354 28.941 16.8077 26.1457C16.3195 24.4972 16.4096 22.855 16.9976 21.2407C17.0505 21.0952 17.089 20.9879 16.9111 20.8796C15.2847 19.8894 13.6642 18.8893 12.0358 17.8883C11.7404 18.1395 11.4572 18.3981 11.156 18.6337C8.35316 20.826 4.10333 20.2815 1.93766 17.4562C-0.598798 14.1473 0.316614 9.57188 3.93059 7.49524C6.61257 5.95413 10.2474 6.61826 12.2059 9.00725C12.4124 9.2591 12.6595 9.3186 12.9474 9.18574C14.9681 8.2532 16.9878 7.31852 19.0112 6.3919C19.1857 6.31194 19.2641 6.23904 19.2309 6.02574C18.8625 3.6635 20.2853 1.22907 22.523 0.37342C25.6565 -0.824759 28.9918 0.965895 29.7202 4.23743C30.4048 7.31293 28.0842 10.4181 24.9455 10.6315C23.1998 10.7502 21.7418 10.1556 20.5633 8.87208C20.4353 8.73274 20.3404 8.71036 20.1682 8.79034C18.0744 9.76281 15.978 10.7299 13.878 11.6889C13.6851 11.7769 13.6477 11.8829 13.6889 12.0721C13.9337 13.1987 13.8387 14.3045 13.4856 15.397C13.459 15.4795 13.5091 15.6483 13.5774 15.6909C15.2009 16.704 16.8319 17.7052 18.4873 18.7245Z" fill="#4AB3FF"/>
</svg>
